<svg xmlns="http://www.w3.org/2000/svg" fill="none" viewBox="87.08 124.28 250 227.02">
<circle cx="146.245" cy="314.447" r="9" transform="rotate(48.0762 146.245 314.447)" fill="#D9D9D9"/>
<circle cx="134.211" cy="340.709" r="7.5" transform="rotate(48.0762 134.211 340.709)" fill="#D9D9D9"/>
<circle cx="155.567" cy="285.914" r="9" transform="rotate(48.0762 155.567 285.914)" fill="#D9D9D9"/>
<circle cx="168.79" cy="257.99" r="9" transform="rotate(48.0762 168.79 257.99)" fill="#D9D9D9"/>
<circle cx="181.438" cy="225.638" r="13" transform="rotate(48.0762 181.438 225.638)" fill="#D9D9D9"/>
<rect x="87.08" y="124.28" width="250" height="78" rx="39" fill="#D9D9D9"/>
<path d="M122.823 177.28C121.623 177.28 120.623 176.28 120.623 175.08L120.623 151.48C120.623 150.24 121.623 149.28 122.823 149.28C122.863 149.28 122.863 149.28 122.943 149.28C122.943 149.28 122.943 149.28 122.983 149.28L128.503 149.28C132.703 149.28 136.103 152.68 136.103 156.88C136.103 158.6 135.543 160.16 134.583 161.44C136.983 162.96 138.623 165.64 138.623 168.68C138.623 173.44 134.783 177.28 130.063 177.28L122.983 177.28C122.943 177.28 122.943 177.24 122.943 177.24C122.863 177.24 122.863 177.28 122.823 177.28ZM125.063 153.72L125.063 160.12L128.503 160.12C130.263 160.12 131.663 158.64 131.663 156.88C131.663 155.12 130.263 153.72 128.503 153.72L125.063 153.72ZM125.063 164.56L125.063 172.84L130.063 172.84C132.343 172.8 134.183 171 134.183 168.68C134.183 166.4 132.343 164.6 130.063 164.56L125.063 164.56ZM152.653 177.4C149.893 177.4 147.573 176.24 145.773 174.36C144.053 172.6 143.013 170.12 143.013 167.32C143.013 164.6 144.053 162.24 145.773 160.32C147.573 158.44 149.893 157.28 152.653 157.28C155.293 157.28 157.693 158.44 159.333 160.32C161.133 162.24 162.133 164.6 162.133 167.32C162.133 170.12 161.133 172.6 159.333 174.36C157.693 176.24 155.293 177.4 152.653 177.4ZM148.813 163.16C147.893 164.24 147.373 165.68 147.373 167.32C147.373 169.04 147.893 170.44 148.813 171.56C149.813 172.52 151.133 173.04 152.653 173.04C154.053 173.04 155.333 172.52 156.333 171.56C157.333 170.44 157.893 169.04 157.893 167.32C157.893 165.68 157.333 164.24 156.333 163.16C155.333 162.28 154.053 161.64 152.653 161.64C151.133 161.64 149.813 162.28 148.813 163.16ZM177.653 177.4C174.893 177.4 172.573 176.24 170.773 174.36C169.053 172.6 168.013 170.12 168.013 167.32C168.013 164.6 169.053 162.24 170.773 160.32C172.573 158.44 174.893 157.28 177.653 157.28C180.293 157.28 182.693 158.44 184.333 160.32C186.133 162.24 187.133 164.6 187.133 167.32C187.133 170.12 186.133 172.6 184.333 174.36C182.693 176.24 180.293 177.4 177.653 177.4ZM173.813 163.16C172.893 164.24 172.373 165.68 172.373 167.32C172.373 169.04 172.893 170.44 173.813 171.56C174.813 172.52 176.133 173.04 177.653 173.04C179.053 173.04 180.333 172.52 181.333 171.56C182.333 170.44 182.893 169.04 182.893 167.32C182.893 165.68 182.333 164.24 181.333 163.16C180.333 162.28 179.053 161.64 177.653 161.64C176.133 161.64 174.813 162.28 173.813 163.16ZM199.951 157.28C201.151 157.28 202.191 158.24 202.191 159.48C202.191 160.68 201.151 161.68 199.951 161.68L198.951 161.68L198.951 172.84C200.191 172.84 201.151 173.84 201.151 175.08C201.151 176.32 200.191 177.28 198.951 177.28C196.511 177.28 194.511 175.28 194.511 172.84L194.511 161.68L193.351 161.68C192.111 161.68 191.151 160.68 191.151 159.48C191.151 158.24 192.111 157.28 193.351 157.28L194.511 157.28L194.511 151.48C194.511 150.24 195.511 149.28 196.751 149.28C197.991 149.28 198.951 150.24 198.951 151.48L198.951 157.28L199.951 157.28ZM208.526 174.52C207.646 173.8 207.526 172.44 208.246 171.56C208.966 170.6 210.366 170.48 211.246 171.24C212.286 172.12 214.086 173.04 215.646 173C216.726 173 217.726 172.64 218.366 172.24C218.926 171.76 219.086 171.36 219.086 171.04C219.086 170.84 219.046 170.76 218.966 170.64C218.926 170.52 218.766 170.36 218.446 170.16C217.886 169.76 216.686 169.32 215.246 169.04L215.206 169.04C213.966 168.8 212.766 168.48 211.726 168C210.646 167.48 209.686 166.76 208.966 165.68C208.526 164.96 208.286 164.08 208.286 163.16C208.286 161.32 209.326 159.76 210.646 158.76C212.046 157.8 213.726 157.28 215.566 157.28C218.326 157.28 220.286 158.6 221.566 159.48C222.526 160.12 222.806 161.44 222.206 162.44C221.566 163.4 220.246 163.68 219.246 163C217.966 162.16 216.846 161.52 215.566 161.52C214.566 161.52 213.686 161.84 213.166 162.24C212.646 162.6 212.526 162.96 212.526 163.16C212.526 163.32 212.526 163.36 212.606 163.48C212.646 163.56 212.766 163.72 213.046 163.88C213.566 164.24 214.606 164.6 215.966 164.84L216.006 164.88L216.046 164.88C217.366 165.12 218.606 165.48 219.766 166.04C220.846 166.52 221.926 167.28 222.606 168.4C223.086 169.2 223.366 170.12 223.366 171.04C223.366 173 222.286 174.64 220.846 175.68C219.406 176.68 217.606 177.28 215.646 177.28C212.526 177.24 210.126 175.8 208.526 174.52ZM236.24 157.28C237.44 157.28 238.48 158.24 238.48 159.48C238.48 160.68 237.44 161.68 236.24 161.68L235.24 161.68L235.24 172.84C236.48 172.84 237.44 173.84 237.44 175.08C237.44 176.32 236.48 177.28 235.24 177.28C232.8 177.28 230.8 175.28 230.8 172.84L230.8 161.68L229.64 161.68C228.4 161.68 227.44 160.68 227.44 159.48C227.44 158.24 228.4 157.28 229.64 157.28L230.8 157.28L230.8 151.48C230.8 150.24 231.8 149.28 233.04 149.28C234.28 149.28 235.24 150.24 235.24 151.48L235.24 157.28L236.24 157.28ZM252.883 157.32C254.083 157.32 255.003 158.24 255.003 159.4C255.003 160.52 254.083 161.52 252.883 161.52C251.963 161.52 251.163 161.76 250.483 162.28C249.723 162.76 249.123 163.44 248.643 164.2C247.683 165.48 247.203 167 247.003 167.56L247.003 175.16C247.003 176.32 246.003 177.28 244.803 177.28C243.643 177.28 242.683 176.32 242.683 175.16L242.683 159.4C242.683 158.24 243.643 157.32 244.803 157.32C246.003 157.32 247.003 158.24 247.003 159.4L247.003 159.68C247.243 159.4 247.563 159.08 247.843 158.88C249.163 158 250.883 157.28 252.883 157.32ZM276.165 159.44L276.165 167.32L276.165 175.16C276.165 176.32 275.205 177.28 274.045 177.28C273.005 177.28 272.205 176.52 271.965 175.56C270.445 176.64 268.645 177.28 266.645 177.28C263.925 177.28 261.565 176.16 259.845 174.36C258.125 172.52 257.125 170.04 257.125 167.32C257.125 164.56 258.125 162.08 259.845 160.28C261.565 158.44 263.925 157.28 266.645 157.28C268.645 157.28 270.445 157.96 271.965 159.04C272.205 158.04 273.005 157.28 274.045 157.28C275.205 157.28 276.165 158.24 276.165 159.44ZM270.365 171.44C271.325 170.4 271.925 168.96 271.925 167.32C271.925 165.64 271.325 164.2 270.365 163.2C269.405 162.12 268.045 161.56 266.645 161.56C265.205 161.56 263.845 162.12 262.925 163.2C261.965 164.2 261.405 165.64 261.405 167.32C261.405 168.96 261.965 170.4 262.925 171.44C263.845 172.44 265.205 173 266.645 173C268.045 173 269.405 172.44 270.365 171.44ZM286.131 184.8C284.971 184.8 284.011 183.76 284.011 182.64L284.011 167.36C284.011 167.36 284.011 167.36 284.011 167.32L284.011 159.4C284.011 158.24 284.971 157.28 286.131 157.28C287.251 157.28 288.171 158.04 288.331 158.92C289.811 157.96 291.731 157.28 293.771 157.28C299.091 157.28 303.451 161.84 303.451 167.32C303.451 172.8 299.091 177.24 293.771 177.24C291.771 177.24 289.851 176.64 288.411 175.6L288.411 182.64C288.411 183.76 287.411 184.8 286.131 184.8ZM289.971 163.28C288.931 164.32 288.411 165.76 288.411 167.32C288.411 168.88 288.931 170.4 289.971 171.32C290.971 172.44 292.291 173 293.771 173C295.131 173 296.491 172.44 297.531 171.32C298.451 170.4 299.091 168.88 299.091 167.32C299.091 165.76 298.451 164.32 297.531 163.28C296.491 162.2 295.131 161.64 293.771 161.64C292.291 161.64 290.971 162.2 289.971 163.28Z" fill="#0B2027"/>
</svg>