<svg xmlns="http://www.w3.org/2000/svg" fill="none" viewBox="0 0 250 226.99">
<ellipse cx="196" cy="191.909" rx="9" ry="9.28591" fill="#D9D9D9"/>
<ellipse cx="212.5" cy="219.251" rx="7.5" ry="7.73826" fill="#D9D9D9"/>
<ellipse cx="181" cy="165.083" rx="9" ry="9.28591" fill="#D9D9D9"/>
<ellipse cx="163" cy="136.193" rx="9" ry="9.28591" fill="#D9D9D9"/>
<ellipse cx="141" cy="109.367" rx="13" ry="13.413" fill="#D9D9D9"/>
<rect width="250" height="80.4779" rx="40.2389" fill="#D9D9D9"/>
<path d="M76.567 56.0001C75.327 56.0001 74.367 55.0401 74.367 53.8001L74.367 30.2001C74.367 28.9601 75.327 28.0001 76.567 28.0001C77.807 28.0001 78.807 28.9601 78.807 30.2001L78.807 39.8001L89.167 39.8001L89.167 30.2001C89.167 28.9601 90.127 28.0001 91.367 28.0001C92.607 28.0001 93.607 28.9601 93.607 30.2001L93.607 53.8001C93.607 55.0401 92.607 56.0001 91.367 56.0001C90.127 56.0001 89.167 55.0401 89.167 53.8001L89.167 44.2001L78.807 44.2001L78.807 53.8001C78.807 55.0401 77.807 56.0001 76.567 56.0001ZM122.046 30.2001C122.046 31.4001 121.046 32.4401 119.846 32.4401L113.486 32.4401L113.486 53.8001C113.486 55.0401 112.526 56.0001 111.286 56.0001C110.086 56.0001 109.086 55.0401 109.086 53.8001L109.086 32.4401L102.766 32.4401C101.526 32.4401 100.566 31.4001 100.566 30.2001C100.566 28.9601 101.526 28.0001 102.766 28.0001L119.846 28.0001C121.046 28.0001 122.046 28.9601 122.046 30.2001ZM150.504 28.0001C151.704 28.0401 152.744 29.0001 152.744 30.2001L152.744 53.8001C152.744 55.0001 151.704 56.0001 150.504 56.0001C149.264 56.0001 148.304 55.0001 148.304 53.8001L148.304 36.9601L142.544 44.9601C142.104 45.5601 141.464 45.8801 140.744 45.8801L140.704 45.8801L140.664 45.8801C139.944 45.8801 139.264 45.5601 138.824 44.9601L133.104 36.9601L133.104 53.8001C133.104 55.0001 132.104 56.0001 130.864 56.0001C129.664 56.0001 128.664 55.0001 128.664 53.8001L128.664 30.2001C128.664 29.0001 129.664 28.0001 130.864 28.0001C130.904 28.0001 130.904 28.0001 130.984 28.0001C131.624 28.0001 132.344 28.3201 132.744 28.9201L140.704 39.9601L148.664 28.9201C149.104 28.3201 149.744 28.0001 150.464 28.0001C150.464 28.0001 150.464 28.0001 150.504 28.0001ZM164.614 56.0001C163.374 56.0001 162.414 55.0001 162.414 53.8001L162.414 30.2001C162.414 29.0001 163.374 28.0001 164.614 28.0001C165.854 28.0001 166.854 29.0001 166.854 30.2001L166.854 51.5601L177.694 51.5601C178.854 51.5601 179.894 52.5601 179.894 53.8001C179.894 55.0001 178.854 56.0001 177.694 56.0001L164.734 56.0001C164.654 56.0001 164.654 56.0001 164.654 56.0001C164.614 56.0001 164.614 56.0001 164.614 56.0001Z" fill="#0B2027"/>
</svg>