<svg xmlns="http://www.w3.org/2000/svg" fill="none" viewBox="71.74 99.75 250 243.4">
<circle cx="195.805" cy="304.818" r="9" transform="rotate(26.4698 195.805 304.818)" fill="#D9D9D9"/>
<circle cx="196.118" cy="333.098" r="7.5" transform="rotate(26.4698 196.118 333.098)" fill="#D9D9D9"/>
<circle cx="195.805" cy="273.818" r="9" transform="rotate(26.4698 195.805 273.818)" fill="#D9D9D9"/>
<circle cx="195.806" cy="242.818" r="9" transform="rotate(26.4698 195.806 242.818)" fill="#D9D9D9"/>
<circle cx="196.17" cy="207.182" r="13" transform="rotate(26.4698 196.17 207.182)" fill="#D9D9D9"/>
<rect x="71.7379" y="99.7502" width="250" height="78" rx="39" fill="#D9D9D9"/>
<path d="M171.924 153.75C163.924 153.75 157.284 147.31 157.244 139.35C157.284 131.43 163.924 124.99 171.924 124.95C175.444 124.95 178.644 126.11 181.164 128.07C182.124 128.87 182.284 130.27 181.564 131.27C180.764 132.27 179.284 132.43 178.364 131.71C176.604 130.27 174.404 129.51 171.924 129.51C169.164 129.51 166.604 130.63 164.724 132.39C162.924 134.23 161.804 136.63 161.804 139.35C161.804 142.07 162.924 144.55 164.724 146.31C166.604 148.07 169.164 149.19 171.924 149.19C174.404 149.19 176.564 148.43 178.364 146.99C179.284 146.31 180.764 146.47 181.564 147.43C182.284 148.43 182.124 149.87 181.164 150.63C178.644 152.59 175.444 153.75 171.924 153.75ZM188.783 149.71C187.903 148.99 187.783 147.67 188.463 146.79C189.183 145.91 190.503 145.79 191.383 146.51C193.143 147.95 196.183 149.63 199.023 149.59C201.023 149.59 202.823 148.99 204.023 148.11C205.223 147.23 205.743 146.23 205.743 145.23C205.743 144.71 205.623 144.35 205.383 143.95C205.143 143.55 204.783 143.15 204.183 142.75C203.023 141.99 201.063 141.31 198.703 140.87L198.623 140.87C196.743 140.51 194.983 140.03 193.463 139.31C191.943 138.59 190.623 137.59 189.743 136.19C189.143 135.23 188.823 134.11 188.823 132.91C188.823 130.51 190.183 128.43 192.023 127.07C193.903 125.71 196.343 124.95 198.943 124.95C202.783 124.95 205.623 126.83 207.663 128.15C208.583 128.79 208.863 130.07 208.223 130.99C207.623 131.95 206.343 132.23 205.383 131.59C203.343 130.23 201.383 129.03 198.943 129.03C197.143 129.03 195.543 129.59 194.463 130.39C193.383 131.19 192.943 132.07 192.943 132.91C192.943 133.39 193.023 133.71 193.223 134.03C193.423 134.35 193.783 134.71 194.303 135.07C195.343 135.79 197.143 136.43 199.303 136.83L199.383 136.83C201.423 137.23 203.303 137.75 204.903 138.51C206.543 139.31 207.983 140.35 208.903 141.83C209.503 142.79 209.863 143.99 209.863 145.23C209.863 147.79 208.423 149.99 206.423 151.43C204.463 152.87 201.863 153.71 199.023 153.71C194.703 153.67 191.063 151.51 188.783 149.71ZM215.072 149.71C214.192 148.99 214.072 147.67 214.752 146.79C215.472 145.91 216.792 145.79 217.672 146.51C219.432 147.95 222.472 149.63 225.312 149.59C227.312 149.59 229.112 148.99 230.312 148.11C231.512 147.23 232.032 146.23 232.032 145.23C232.032 144.71 231.912 144.35 231.672 143.95C231.432 143.55 231.072 143.15 230.472 142.75C229.312 141.99 227.352 141.31 224.992 140.87L224.912 140.87C223.032 140.51 221.272 140.03 219.752 139.31C218.232 138.59 216.912 137.59 216.032 136.19C215.432 135.23 215.112 134.11 215.112 132.91C215.112 130.51 216.472 128.43 218.312 127.07C220.192 125.71 222.632 124.95 225.232 124.95C229.072 124.95 231.912 126.83 233.952 128.15C234.872 128.79 235.152 130.07 234.512 130.99C233.912 131.95 232.632 132.23 231.672 131.59C229.632 130.23 227.672 129.03 225.232 129.03C223.432 129.03 221.832 129.59 220.752 130.39C219.672 131.19 219.232 132.07 219.232 132.91C219.232 133.39 219.312 133.71 219.512 134.03C219.712 134.35 220.072 134.71 220.592 135.07C221.632 135.79 223.432 136.43 225.592 136.83L225.672 136.83C227.712 137.23 229.592 137.75 231.192 138.51C232.832 139.31 234.272 140.35 235.192 141.83C235.792 142.79 236.152 143.99 236.152 145.23C236.152 147.79 234.712 149.99 232.712 151.43C230.752 152.87 228.152 153.71 225.312 153.71C220.992 153.67 217.352 151.51 215.072 149.71Z" fill="#0B2027"/>
</svg>